<svg width="16" height="16" viewBox="0 0 16 16" fill="none" xmlns="http://www.w3.org/2000/svg">
<g clip-path="url(#clip0_10_37)">
<path d="M15.416 6.60467L12.83 4.01933C12.705 3.89435 12.5354 3.82414 12.3587 3.82414C12.1819 3.82414 12.0124 3.89435 11.8873 4.01933C11.7624 4.14435 11.6921 4.31389 11.6921 4.49067C11.6921 4.66744 11.7624 4.83698 11.8873 4.962L14.2573 7.33333H0.666667C0.489856 7.33333 0.320286 7.40357 0.195262 7.5286C0.0702379 7.65362 0 7.82319 0 8H0C0 8.17681 0.0702379 8.34638 0.195262 8.4714C0.320286 8.59643 0.489856 8.66667 0.666667 8.66667H14.298L11.8873 11.0767C11.8253 11.1386 11.7762 11.2121 11.7426 11.293C11.7091 11.374 11.6918 11.4607 11.6918 11.5483C11.6918 11.6359 11.7091 11.7227 11.7426 11.8036C11.7762 11.8846 11.8253 11.9581 11.8873 12.02C12.0124 12.145 12.1819 12.2152 12.3587 12.2152C12.5354 12.2152 12.705 12.145 12.83 12.02L15.4167 9.434C15.7906 9.05811 16.0005 8.54942 16.0004 8.0192C16.0002 7.48897 15.7901 6.98038 15.416 6.60467Z" fill="#111026"/>
</g>
<defs>
<clipPath id="clip0_10_37">
<rect width="16" height="16" fill="white"/>
</clipPath>
</defs>
</svg>
