<svg width="47" height="47" viewBox="0 0 47 47" fill="none" xmlns="http://www.w3.org/2000/svg">
<path id="Vector (Stroke)" fill-rule="evenodd" clip-rule="evenodd" d="M7.23654 7.23654C11.5499 2.92321 17.4 0.5 23.5 0.5C29.6 0.5 35.4501 2.92321 39.7635 7.23654C44.0768 11.5499 46.5 17.4 46.5 23.5C46.5 29.6 44.0768 35.4501 39.7635 39.7635C35.4501 44.0768 29.6 46.5 23.5 46.5C17.4 46.5 11.5499 44.0768 7.23654 39.7635C2.92321 35.4501 0.5 29.6 0.5 23.5C0.5 17.4 2.92321 11.5499 7.23654 7.23654ZM23.5 3.5C18.1957 3.5 13.1086 5.60714 9.35786 9.35786C5.60714 13.1086 3.5 18.1957 3.5 23.5C3.5 28.3037 5.22818 32.9293 8.34025 36.5455C6.85406 32.593 6.23614 28.8657 6.55304 25.3798C6.99397 20.5295 9.22904 16.3178 13.1172 12.761C15.9002 10.0702 19.6224 8.5625 23.5 8.5625C27.4617 8.5625 31.2611 10.1363 34.0624 12.9376C35.5515 14.4267 36.6937 16.1978 37.4371 18.1253C37.0833 14.5362 35.6883 10.5035 33.1501 5.98211C30.2203 4.36824 26.9049 3.5 23.5 3.5ZM38.5382 10.3146C40.1115 14.3664 40.7727 18.1688 40.4468 21.718C40.0041 26.5409 37.7558 30.7157 33.8556 34.2653C31.0756 36.9396 27.365 38.4375 23.5 38.4375C19.5383 38.4375 15.7389 36.8637 12.9376 34.0624C11.4378 32.5626 10.2898 30.7766 9.54689 28.8329C9.86628 32.4268 11.2165 36.4517 13.6941 40.9312C16.662 42.6006 20.0346 43.5 23.5 43.5C28.8043 43.5 33.8914 41.3929 37.6421 37.6421C41.3929 33.8914 43.5 28.8043 43.5 23.5C43.5 18.6341 41.7268 13.951 38.5382 10.3146ZM15.1785 14.941C15.1384 14.98 15.0985 15.0193 15.0589 15.0589C12.8202 17.2976 11.5625 20.334 11.5625 23.5C11.5625 26.666 12.8202 29.7024 15.0589 31.9411C17.2976 34.1798 20.334 35.4375 23.5 35.4375C26.0895 35.4375 28.5923 34.5961 30.6428 33.0648C31.0469 32.741 31.4324 32.4128 31.7997 32.0802C31.8472 32.0342 31.8943 31.9879 31.9411 31.9411C34.1798 29.7024 35.4375 26.666 35.4375 23.5C35.4375 20.334 34.1798 17.2976 31.9411 15.0589C29.7024 12.8202 26.666 11.5625 23.5 11.5625C20.9104 11.5625 18.4076 12.4039 16.3571 13.9353C15.9451 14.2654 15.5523 14.6006 15.1785 14.941Z" fill="#2F5DF2"/>
</svg>
